control3min_grf.mot
version=1
nRows=12
nColumns 19
inDegrees=yes
endheader
time	1_ground_force_vx	1_ground_force_vy	1_ground_force_vz	1_ground_force_px	1_ground_force_py	1_ground_force_pz	1_ground_torque_x	1_ground_torque_y	1_ground_torque_z	2_ground_force_vx	2_ground_force_vy	2_ground_force_vz	2_ground_force_px	2_ground_force_py	2_ground_force_pz	2_ground_torque_x	2_ground_torque_y	2_ground_torque_z
            2.502500	            0.685926	            5.048948	           -0.301055	           -0.233013	            0.005581	           -0.255695	            0.480378	           -0.259304	            0.233616	            0.178204	            2.399124	           -1.258597	           -0.232311	            0.006130	           -0.833667	           -0.337452	           -0.208642	           -0.151400
            2.503000	            0.685081	            4.689989	           -0.669448	           -0.233013	            0.005581	           -0.255695	            0.496515	           -0.167363	            0.346772	            0.086519	            1.846173	           -1.213600	           -0.232311	            0.006130	           -0.833667	           -0.393917	           -0.189604	           -0.245559
            2.503500	            0.411081	            4.507901	           -0.256835	           -0.233013	            0.005581	           -0.255695	            0.441265	           -0.120946	            0.260194	           -0.052619	            1.476700	           -1.027142	           -0.232311	            0.006130	           -0.833667	           -0.393868	           -0.190008	           -0.132458
            2.504000	            0.457152	            4.507517	           -0.165237	           -0.233013	            0.005581	           -0.255695	            0.568897	           -0.084165	            0.318383	           -0.337083	            2.396761	           -1.117593	           -0.232311	            0.006130	           -0.833667	           -0.356397	           -0.179882	           -0.283242
            2.504500	            0.503549	            3.965942	            0.015754	           -0.233013	            0.005581	           -0.255695	            0.523846	           -0.130283	            0.301473	           -0.098866	            1.292884	           -1.168563	           -0.232311	            0.006130	           -0.833667	           -0.337588	           -0.170832	           -0.151265
            2.505000	            0.503498	            4.867074	            0.065474	           -0.233013	            0.005581	           -0.255695	            0.521377	           -0.232040	            0.319809	            0.041725	            1.293057	           -1.074767	           -0.232311	            0.006130	           -0.833667	           -0.393978	           -0.161582	           -0.151207
            2.505500	            0.457167	            5.048117	           -0.117063	           -0.233013	            0.005581	           -0.255695	            0.604215	           -0.250619	            0.336361	            0.460715	            2.031173	           -1.072318	           -0.232311	            0.006130	           -0.833667	           -0.337751	           -0.123635	           -0.132246
            2.506000	            0.319152	            3.967676	           -0.396494	           -0.233013	            0.005581	           -0.255695	            0.522530	           -0.231818	            0.236828	           -0.007099	            1.845165	           -1.025848	           -0.232311	            0.006130	           -0.833667	           -0.431558	           -0.161651	           -0.170041
            2.506500	            0.548544	            4.868459	           -0.255631	           -0.233013	            0.005581	           -0.255695	            0.497314	           -0.102305	            0.247188	            0.039710	            1.845669	           -1.119724	           -0.232311	            0.006130	           -0.833667	           -0.243686	           -0.170291	           -0.207855
            2.507000	            0.502845	            5.949454	           -0.113312	           -0.233013	            0.005581	           -0.255695	            0.490753	           -0.130052	            0.245092	           -0.007825	            2.029816	           -1.165975	           -0.232311	            0.006130	           -0.833667	           -0.431549	           -0.161718	           -0.151191
            2.507500	            0.274268	            4.326429	            0.017868	           -0.233013	            0.005581	           -0.255695	            0.523310	           -0.129905	            0.178901	           -0.191278	            0.924584	           -1.263694	           -0.232311	            0.006130	           -0.833667	           -0.450429	           -0.133495	           -0.132232
            2.508000	            0.365678	            3.966505	           -0.121473	           -0.233013	            0.005581	           -0.255695	            0.604749	           -0.185715	            0.276373	           -0.100778	            1.844660	           -0.978880	           -0.232311	            0.006130	           -0.833667	           -0.412600	           -0.218030	           -0.245653
